<?xml version="1.0" standalone="no"?>
<!DOCTYPE svg PUBLIC "-//W3C//DTD SVG 20010904//EN"
 "http://www.w3.org/TR/2001/REC-SVG-20010904/DTD/svg10.dtd">
<svg version="1.0" xmlns="http://www.w3.org/2000/svg"
 width="270.000000pt" height="270.000000pt" viewBox="0 0 270.000000 270.000000"
 preserveAspectRatio="xMidYMid meet">
<metadata>
Created by potrace 1.11, written by Peter Selinger 2001-2013
</metadata>
<g transform="translate(0.000000,270.000000) scale(0.100000,-0.100000)"
fill="#000000" stroke="none">
<path d="M1135 2684 c-280 -49 -521 -169 -720 -357 l-60 -57 88 0 87 0 0 -130
0 -130 -130 0 -129 0 -3 75 -3 76 -44 -67 c-48 -74 -121 -216 -116 -225 2 -3
28 -5 59 -4 l54 1 1 -131 2 -131 -101 1 c-83 0 -100 -2 -101 -15 0 -8 -3 -24
-6 -35 -3 -11 -6 -87 -8 -170 -4 -174 10 -283 56 -430 27 -86 101 -260 118
-275 4 -3 12 -16 19 -30 57 -112 253 -316 391 -408 161 -108 305 -168 501
-208 100 -21 137 -23 285 -20 142 3 187 8 275 29 439 109 773 395 943 808 34
80 64 180 74 244 3 17 9 50 13 75 11 58 11 312 0 370 -4 25 -11 61 -14 80 -20
124 -107 341 -180 449 -20 29 -36 55 -36 57 0 5 -21 31 -96 118 -184 213 -441
364 -729 428 -117 26 -375 32 -490 12z m362 -485 c1 -71 -2 -129 -5 -130 -4 0
-62 -1 -130 -2 l-122 -2 -1 35 c-1 37 -1 144 0 196 l1 31 128 0 128 0 1 -128z
m-487 -239 l0 -130 -130 0 -130 0 0 130 0 130 130 0 130 0 0 -130z m165 -345
l0 -129 -127 -1 c-121 0 -128 1 -129 20 -1 29 -1 196 0 220 1 20 7 21 129 20
l127 0 0 -130z m390 -125 l0 -130 -130 0 -130 0 0 130 0 130 130 0 130 0 0
-130z m-895 51 c4 -1 4 -147 1 -242 -1 -13 -20 -15 -128 -15 l-128 1 -2 127
c-2 111 0 127 14 130 14 3 229 2 243 -1z m365 -213 c8 -5 11 -113 6 -234 -1
-19 -6 -20 -128 -20 l-128 1 -1 120 c-1 66 0 125 2 130 5 11 232 14 249 3z
m-203 -410 c2 -35 2 -93 0 -131 l-4 -67 -129 1 -129 1 1 129 0 129 129 0 129
0 3 -62z m192 -367 l53 -1 -1 -127 -1 -128 -127 -3 c-127 -3 -128 -3 -129 20
-3 88 -1 227 4 234 3 5 37 8 76 7 39 -1 95 -2 125 -2z"/>
</g>
</svg>
